<?xml version="1.0" standalone="no"?>
<!DOCTYPE svg PUBLIC "-//W3C//DTD SVG 20010904//EN"
 "http://www.w3.org/TR/2001/REC-SVG-20010904/DTD/svg10.dtd">
<svg version="1.0" xmlns="http://www.w3.org/2000/svg"
 width="1024.000000pt" height="1024.000000pt" viewBox="0 0 1024.000000 1024.000000"
 preserveAspectRatio="xMidYMid meet">

<g transform="translate(0.000000,1024.000000) scale(0.100000,-0.100000)"
fill="#000000" stroke="none">
<path d="M4987 7849 c-456 -37 -823 -157 -1212 -393 -179 -109 -461 -346 -597
-501 -414 -474 -628 -992 -679 -1651 -33 -431 71 -909 292 -1332 139 -268 301
-491 491 -679 183 -180 297 -272 499 -401 254 -162 483 -258 814 -341 254 -63
600 -86 855 -57 539 63 1003 254 1415 583 305 243 519 509 713 883 93 179 148
325 203 534 85 325 108 732 58 1056 -114 749 -547 1445 -1149 1849 -118 79
-363 209 -480 254 -187 72 -242 90 -370 122 -144 35 -288 57 -490 75 -129 11
-219 11 -363 -1z m408 -229 c370 -42 634 -120 965 -288 461 -234 608 -347 655
-502 12 -40 96 -170 106 -164 5 3 9 -2 9 -11 0 -9 4 -14 9 -10 20 12 95 -101
207 -310 130 -243 220 -511 259 -770 37 -249 43 -441 20 -635 -8 -69 -15 -129
-15 -133 0 -5 -5 -5 -12 -1 -6 4 -17 -1 -25 -11 -7 -11 -13 -13 -13 -6 0 6
-12 23 -26 38 -23 22 -32 25 -80 21 -35 -3 -54 -1 -55 6 0 6 -9 -25 -18 -69
-38 -168 -102 -360 -144 -435 -11 -19 -48 -89 -82 -155 -56 -107 -143 -242
-253 -390 -81 -110 -310 -320 -517 -475 -159 -118 -191 -139 -325 -206 -304
-152 -646 -244 -909 -244 -41 0 -72 -2 -70 -4 2 -3 63 -10 134 -16 127 -12
217 -27 168 -29 -28 -1 -31 -21 -3 -21 13 0 20 -7 20 -20 0 -13 -7 -20 -20
-20 -11 0 -20 -4 -20 -9 0 -15 45 -18 115 -9 37 5 79 8 94 6 57 -7 -272 -38
-399 -38 -159 0 -347 15 -446 36 -206 42 -525 157 -684 247 -105 59 -326 211
-425 292 -128 105 -307 291 -402 419 -41 54 -73 100 -71 101 2 1 185 5 407 9
223 3 407 9 410 12 3 3 -185 4 -418 3 l-423 -3 -50 90 c-103 188 -187 367
-221 476 -38 123 -88 336 -108 463 -17 102 -16 476 0 610 46 373 176 748 350
1008 26 37 60 89 76 115 28 44 75 103 150 191 42 48 200 206 271 269 174 155
556 370 812 456 145 50 396 103 537 115 135 12 358 12 460 1z m2202 -2860 c1
-10 -4 -45 -11 -77 -9 -37 -15 -49 -16 -33 -1 14 -1 30 0 35 5 18 8 49 9 79 1
31 13 29 18 -4z m-36 -196 c-6 -28 -9 -32 -10 -14 -1 30 11 79 16 64 2 -6 -1
-28 -6 -50z m-1801 -1784 c-14 -4 -34 -8 -45 -8 -16 0 -15 2 5 8 14 4 34 8 45
8 16 0 15 -2 -5 -8z"/>
<path d="M5843 6912 l-903 -2 0 -606 0 -606 -307 7 c-265 6 -319 5 -388 -9
-206 -43 -376 -155 -459 -303 -71 -126 -110 -321 -100 -495 8 -124 15 -136 66
-115 56 23 105 74 173 177 117 177 239 261 411 281 54 6 190 8 344 5 l255 -6
-3 -798 c-2 -438 -6 -814 -9 -836 -5 -38 -5 -39 23 -32 51 12 175 89 239 148
34 32 84 90 111 129 l49 71 5 663 5 663 510 -1 c464 -1 515 0 570 17 166 50
261 149 304 318 27 104 29 134 11 129 -8 -3 -327 -5 -707 -5 l-693 -1 0 380 0
381 523 -1 522 0 55 24 c87 39 149 81 173 116 12 18 34 50 49 71 22 32 86 233
76 238 -2 0 -409 0 -905 -2z"/>
<path d="M3968 6644 c-70 -21 -150 -103 -174 -177 -15 -48 -16 -64 -6 -109 33
-147 131 -228 273 -228 119 0 211 59 258 165 92 209 -121 420 -351 349z"/>
<path d="M7402 4900 c0 -14 2 -19 5 -12 2 6 2 18 0 25 -3 6 -5 1 -5 -13z"/>
<path d="M3917 4483 c18 -2 50 -2 70 0 21 2 7 4 -32 4 -38 0 -55 -2 -38 -4z"/>
<path d="M4043 4483 c9 -2 25 -2 35 0 9 3 1 5 -18 5 -19 0 -27 -2 -17 -5z"/>
<path d="M4280 4185 c13 -14 26 -25 28 -25 3 0 -5 11 -18 25 -13 14 -26 25
-28 25 -3 0 5 -11 18 -25z"/>
<path d="M4279 3873 c-13 -16 -12 -17 4 -4 16 13 21 21 13 21 -2 0 -10 -8 -17
-17z"/>
<path d="M4053 3813 c20 -2 54 -2 75 0 20 2 3 4 -38 4 -41 0 -58 -2 -37 -4z"/>
<path d="M3665 3350 c-4 -6 -12 -7 -18 -4 -8 5 -9 4 -2 -4 6 -6 46 -25 89 -42
170 -67 473 -128 499 -101 9 11 9 14 0 18 -7 3 -13 11 -13 18 0 16 -25 26 -44
19 -7 -3 -21 2 -30 11 -23 23 -71 35 -143 35 -35 0 -63 4 -63 10 0 6 -33 10
-78 10 -66 0 -80 3 -92 20 -10 15 -26 20 -57 20 -23 0 -45 -5 -48 -10z m65 -4
c0 -11 -19 -15 -25 -6 -3 5 1 10 9 10 9 0 16 -2 16 -4z m57 -42 c-3 -3 -12 -4
-19 -1 -8 3 -5 6 6 6 11 1 17 -2 13 -5z"/>
<path d="M4510 3194 l-65 -12 50 0 c28 0 73 3 100 7 48 7 49 7 15 11 -19 3
-64 0 -100 -6z"/>
<path d="M4658 3203 c6 -2 18 -2 25 0 6 3 1 5 -13 5 -14 0 -19 -2 -12 -5z"/>
</g>
</svg>
